<svg width="346" height="341" viewBox="0 0 346 341" fill="none" xmlns="http://www.w3.org/2000/svg">
<path d="M8.51519 214.853C5.53961 214.766 4.49417 210.865 7.02717 209.302L142.542 125.637C143.017 125.343 143.565 125.188 144.123 125.189L302.273 125.462C305.272 125.467 306.408 129.383 303.879 130.993L165.684 218.947C165.177 219.269 164.586 219.432 163.985 219.415L8.51519 214.853Z" fill="#06F96E"/>
<path d="M245.016 232.575C245.318 233.89 244.705 235.244 243.519 235.885L179.187 270.672C178.704 270.933 178.16 271.056 177.612 271.029L105.902 267.486C104.561 267.419 103.427 266.47 103.126 265.161L94.2854 226.649C93.846 224.735 95.3341 222.922 97.2974 222.979L167.007 225.025C167.607 225.042 168.199 224.879 168.705 224.557L230.097 185.484C231.845 184.371 234.168 185.324 234.632 187.343L245.016 232.575Z" fill="#06F96E"/>
<path d="M222.987 147.11L74.1082 213.546C69.7355 215.222 61.4299 220.489 63.1885 228.15C64.9472 235.811 66.8988 244.312 68.8041 252.612M68.8041 252.612C65.7913 253.303 60.2053 256.602 61.964 264.263C63.7227 271.923 70.188 272.455 73.2008 271.764M68.8041 252.612C69.2523 252.494 77.8425 250.537 80.0409 260.113C81.7996 267.774 76.2136 271.072 73.2008 271.764M73.2008 271.764L75.6119 323.713C78.9178 324.298 86.2577 324.495 89.1696 320.601L73.2008 271.764Z" stroke="#06F96E" stroke-width="3"/>
</svg>
