<svg width="710" height="644" viewBox="0 0 710 644" fill="none" xmlns="http://www.w3.org/2000/svg">
<path d="M104.835 230.959C102.573 229.023 104.207 225.331 107.161 225.703L386.034 260.855C386.588 260.925 387.111 261.148 387.545 261.499L604.728 437.206C607.06 439.092 605.487 442.854 602.507 442.52L315.19 410.291C314.593 410.224 314.03 409.979 313.574 409.589L104.835 230.959Z" fill="#06F96E" fill-opacity="0.33"/>
<path d="M406.439 515.484C405.849 516.696 404.522 517.366 403.196 517.121L277.586 493.902C277.047 493.802 276.545 493.556 276.135 493.191L182.487 409.742C181.484 408.848 181.197 407.397 181.785 406.189L213.379 341.256C214.238 339.49 216.535 339.012 218.027 340.289L311.568 420.337C312.024 420.728 312.587 420.972 313.184 421.039L440.965 435.372C443.025 435.603 444.235 437.803 443.328 439.666L406.439 515.484Z" fill="#06F96E" fill-opacity="0.33"/>
<path d="M128.471 359.195C134.372 347.066 145.387 348.676 150.157 350.997C150.882 351.323 164.467 357.959 157.091 373.12C151.189 385.249 140.174 383.64 135.404 381.319L104.138 463.763C96.0539 465.83 86.4599 457.662 82.6735 453.319L135.404 381.319C130.634 378.998 122.569 371.324 128.471 359.195Z" fill="#06F96E" fill-opacity="0.33"/>
<path d="M469.771 376.109L199.318 304.519C191.671 302.048 174.902 300.139 169.001 312.268C163.1 324.397 156.551 337.857 150.157 350.997M150.157 350.997C145.387 348.676 134.372 347.066 128.471 359.195C122.569 371.324 130.634 378.998 135.404 381.319M150.157 350.997C150.882 351.323 164.467 357.959 157.091 373.12C151.189 385.249 140.174 383.64 135.404 381.319M135.404 381.319L82.6735 453.319C86.4599 457.662 96.0539 465.83 104.138 463.763L135.404 381.319Z" stroke="#06F96E" stroke-width="3"/>
</svg>
